<svg width="284" height="92" viewBox="0 0 284 92" fill="none" xmlns="http://www.w3.org/2000/svg">
<path d="M0 0H284V38.944V76C284 84.8366 276.837 92 268 92H16C7.16344 92 0 84.8366 0 76V0Z" fill="#02ABFF" fill-opacity="0.12"/>
<path d="M0.595766 36.8384C0.184108 35.473 0 34.0431 0 32.617V0H284V38.944C284 46.0761 279.27 52.3041 272.546 54.6815C256.238 60.4475 235.237 69.9282 224.602 81.049C219.399 86.4901 212.734 92 205.205 92H55.4098C53.748 92 52.0992 91.762 50.5468 91.1693C36.4294 85.7786 10.2515 68.8643 0.595766 36.8384Z" fill="#1D83F9"/>
<path d="M86.1562 38.0215C84.1799 38.0215 82.459 36.3066 80.7188 35.3697C79.5485 34.7397 77.9602 34.4247 75.9539 34.4247C74.5906 34.4247 73.4396 34.5658 72.5007 34.8479C71.5619 35.1206 70.8417 35.5014 70.3401 35.9904C69.8514 36.4793 69.6071 37.0341 69.6071 37.6548C69.5813 38.172 69.7292 38.6233 70.0508 39.0089C70.3851 39.3944 70.8417 39.7282 71.4204 40.0103C71.9992 40.283 72.6679 40.5228 73.4267 40.7297C74.1855 40.9271 74.9958 41.0964 75.8574 41.2374L79.407 41.8581C81.1304 42.1402 82.7123 42.5163 84.1527 42.9865C85.5931 43.4566 86.8406 44.035 87.8952 44.7214C88.9498 45.4078 89.7664 46.2165 90.3452 47.1475C90.9368 48.0784 91.239 49.1457 91.2519 50.3493C91.239 52.1171 90.6217 53.6499 89.3999 54.9476C88.191 56.2358 86.4419 57.2373 84.1527 57.9519C81.8763 58.6572 79.1305 59.0098 75.9153 59.0098C72.7258 59.0098 69.9479 58.6525 67.5815 57.9378C65.2279 57.2232 63.3888 56.1653 62.0642 54.7642C61.7258 54.4004 61.4289 54.0143 61.1736 53.6061C59.9283 51.6152 61.9431 49.5312 64.2913 49.5312H65.3436C66.8959 49.5312 68.1071 50.8763 69.2212 51.9573C69.9029 52.5967 70.8095 53.081 71.9413 53.4101C73.0859 53.7298 74.3784 53.8897 75.8188 53.8897C77.2335 53.8897 78.4618 53.7392 79.5035 53.4383C80.5581 53.1374 81.3747 52.719 81.9535 52.183C82.5322 51.647 82.8216 51.0311 82.8216 50.3352C82.8216 49.6864 82.5579 49.141 82.0306 48.699C81.5162 48.2571 80.7574 47.8809 79.7543 47.5706C78.764 47.2603 77.5486 46.9782 76.1082 46.7243L71.8063 45.9344C68.4753 45.342 65.8453 44.4158 63.9161 43.1557C61.987 41.8957 61.0289 40.1984 61.0417 38.0638C61.0289 36.3148 61.6655 34.7867 62.9516 33.4797C64.2505 32.1726 66.0317 31.1523 68.2952 30.4189C70.5588 29.6854 73.1309 29.3187 76.0118 29.3187C78.944 29.3187 81.5033 29.6854 83.6897 30.4189C85.8889 31.1523 87.5994 32.1726 88.8212 33.4797C88.9878 33.6579 89.1434 33.84 89.288 34.0259C90.7422 35.8957 88.7628 38.0215 86.3939 38.0215H86.1562Z" fill="white"/>
<path d="M105.166 59.0098C103.275 59.0098 101.59 58.77 100.111 58.2905C98.6324 57.8015 97.4621 57.0821 96.6004 56.1324C95.7516 55.1732 95.3272 53.979 95.3272 52.5497C95.3272 51.3461 95.6294 50.3352 96.2338 49.5171C96.8383 48.699 97.6614 48.0408 98.7031 47.5424C99.7449 47.044 100.928 46.6679 102.253 46.414C103.59 46.1601 104.992 45.9814 106.458 45.878C108.182 45.7464 109.571 45.6241 110.625 45.5113C111.68 45.389 112.445 45.2104 112.921 44.9753C113.397 44.7402 113.635 44.3923 113.635 43.9315V43.8469C113.635 42.9536 113.249 42.2624 112.477 41.7734C111.718 41.2845 110.638 41.04 109.236 41.04C107.757 41.04 106.58 41.2798 105.706 41.7593C104.372 42.4763 102.948 43.4759 101.437 43.3862L100.525 43.332C98.3979 43.2057 97.0198 41.0494 98.6453 39.6718C99.777 38.7032 101.237 37.9604 103.024 37.4432C104.825 36.9166 106.908 36.6533 109.275 36.6533C110.921 36.6533 112.496 36.7944 114.001 37.0765C115.519 37.3586 116.863 37.7958 118.033 38.3882C119.216 38.9806 120.149 39.7423 120.83 40.6732C121.512 41.5948 121.853 42.6997 121.853 43.9879V54.7039C121.853 56.8561 120.108 58.6008 117.956 58.6008H115.561C114.732 58.6008 114.059 57.9282 114.059 57.0986V55.7487C114.059 55.6646 113.991 55.5964 113.907 55.5964C113.857 55.5964 113.811 55.6206 113.782 55.6608C113.311 56.3114 112.69 56.887 111.918 57.3877C111.12 57.8955 110.162 58.2952 109.043 58.5867C107.924 58.8688 106.632 59.0098 105.166 59.0098ZM107.519 54.8629C108.728 54.8629 109.796 54.689 110.722 54.341C111.648 53.9837 112.374 53.5041 112.902 52.9023C113.429 52.3005 113.692 51.6188 113.692 50.8571V49.6737C113.692 49.1557 113.136 48.7805 112.631 48.8965C112.194 48.9905 111.699 49.0799 111.146 49.1645C110.593 49.2397 110.04 49.3102 109.487 49.3761C108.934 49.4325 108.432 49.4842 107.982 49.5312C107.018 49.6347 106.175 49.7992 105.455 50.0249C104.735 50.2506 104.175 50.5562 103.777 50.9417C103.378 51.3179 103.179 51.788 103.179 52.3522C103.179 53.1703 103.584 53.7956 104.394 54.2282C105.217 54.6514 106.259 54.8629 107.519 54.8629Z" fill="white"/>
<path d="M132.241 66.7253C131.199 66.7253 130.222 66.6641 129.309 66.5419C128.096 66.3898 127.475 65.1249 127.942 63.9947L128.121 63.5607C128.585 62.4388 129.786 61.8511 130.996 61.9445C131.178 61.9586 131.355 61.9677 131.527 61.9719C132.312 61.9907 132.987 61.859 133.553 61.5769C134.132 61.2948 134.601 60.8153 134.961 60.1382C135.265 59.5612 135.278 58.8748 134.997 58.2864L127.41 42.3791C126.206 39.8536 128.047 36.9354 130.845 36.9354C132.419 36.9354 133.83 37.9037 134.396 39.3718L139.535 52.7017C139.569 52.7886 139.652 52.8459 139.746 52.8459C139.838 52.8459 139.922 52.7889 139.956 52.7023L145.143 39.3751C145.715 37.9042 147.132 36.9354 148.71 36.9354C151.529 36.9354 153.381 39.8782 152.162 42.4194L143.276 60.9422C142.723 62.1082 141.97 63.1238 141.019 63.9889C140.08 64.8634 138.89 65.5358 137.45 66.0059C136.009 66.4855 134.273 66.7253 132.241 66.7253Z" fill="white"/>
<path d="M171.547 59.0239C168.499 59.0239 165.875 58.5726 163.676 57.6698C161.49 56.7577 159.805 55.4694 158.622 53.805C157.439 52.1312 156.847 50.1518 156.847 47.8668C156.847 45.6382 157.439 43.6823 158.622 41.9991C159.805 40.3159 161.471 39.0041 163.618 38.0638C165.779 37.1235 168.312 36.6533 171.219 36.6533C173.174 36.6533 174.994 36.8837 176.678 37.3445C177.556 37.5778 178.712 38.1166 179.624 38.5826C180.629 39.0957 181.546 39.7632 182.324 40.5796C182.981 41.2693 183.731 42.136 184.086 42.8313C184.794 44.2042 185.147 45.8122 185.147 47.6552C185.147 48.5667 184.408 49.3055 183.497 49.3055H161.988C160.96 49.3055 160.127 48.472 160.127 47.4437C160.127 46.4154 160.96 45.5818 161.988 45.5818H174.94C176.305 45.5818 177.473 44.3638 176.64 43.2827C176.125 42.615 175.412 42.0932 174.499 41.717C173.598 41.3315 172.55 41.1387 171.354 41.1387C170.107 41.1387 169.001 41.3503 168.036 41.7734C167.084 42.1872 166.338 42.7467 165.798 43.4519C165.258 44.1478 164.982 44.9236 164.969 45.7793V49.3196C164.969 50.3916 165.239 51.3179 165.779 52.0983C166.332 52.8788 167.11 53.4806 168.113 53.9038C169.116 54.3269 170.306 54.5385 171.682 54.5385C172.595 54.5385 173.431 54.4445 174.19 54.2564C174.949 54.0683 175.598 53.7862 176.138 53.4101C177.075 52.7582 178.103 52.063 179.243 52.118L180.687 52.1877C182.875 52.2933 184.283 54.4904 182.601 55.8926C181.418 56.8799 179.887 57.651 178.01 58.2058C176.145 58.7512 173.991 59.0239 171.547 59.0239Z" fill="white"/>
<path d="M204.67 58.6008H203.554C197.761 58.6008 194.091 52.3867 196.888 47.3137L197.11 46.9118C198.29 44.7718 198.235 42.1641 196.965 40.076C194.202 35.5314 197.473 29.7136 202.792 29.7136H204.786C208.76 29.7136 212.181 30.2919 215.049 31.4485C217.917 32.5958 220.122 34.246 221.666 36.3994C223.222 38.5528 224 41.1293 224 44.129C224 47.1381 223.222 49.724 221.666 51.8868C220.122 54.0495 217.904 55.7092 215.01 56.8658C212.129 58.0225 208.683 58.6008 204.67 58.6008ZM202 51.6111C202 52.7509 203.036 53.61 204.156 53.3992C204.267 53.3783 204.38 53.368 204.493 53.3673C206.888 53.3529 208.908 53.0334 210.554 52.4086C212.252 51.7598 213.525 50.7584 214.374 49.4043C215.235 48.0408 215.666 46.2824 215.666 44.129C215.666 41.9944 215.235 40.2501 214.374 38.896C213.525 37.5419 212.258 36.5452 210.573 35.9057C208.889 35.2663 206.811 34.9466 204.342 34.9466C203.049 34.9466 202 35.9952 202 37.2888V51.6111Z" fill="white"/>
<path d="M51.9626 49.8929L51.9611 49.8929C51.3318 49.2911 50.5066 48.9361 49.6366 48.893C48.3791 48.8308 46.8073 48.3993 46.412 47.204L44.4204 41.1799C44.1871 40.4626 43.7507 39.8283 43.164 39.3537C42.5773 38.8791 41.8655 38.5847 41.1148 38.5061L27.6074 37.0433C27.2574 37.0066 26.9035 37.0486 26.5717 37.1662C26.24 37.2838 25.9387 37.474 25.69 37.723C25.4414 37.9719 25.2515 38.2733 25.1344 38.605C25.0174 38.9367 24.976 39.2903 25.0133 39.6401L26.4772 53.1338C26.5559 53.8839 26.8506 54.5951 27.3255 55.1814C27.8005 55.7676 28.4353 56.2037 29.1532 56.4368L35.3234 58.4614C36.4381 58.8272 36.8348 60.2968 36.8348 61.47C36.8377 62.4077 37.2118 63.3061 37.8753 63.9692C38.5389 64.6323 39.4381 65.006 40.3765 65.0089C41.3159 65.0064 42.2162 64.6327 42.8809 63.9693L51.9634 54.8954C52.6272 54.2318 53 53.3319 53 52.3937C53 51.4559 52.6275 50.5564 51.9642 49.8929L51.9626 49.8929ZM29.6412 54.9426C29.2117 54.8006 28.832 54.5384 28.5474 54.1871C28.2627 53.8357 28.0851 53.4101 28.0356 52.9607L27.3997 47.037C27.1396 44.6149 30.0698 43.2126 31.793 44.9344L32.197 45.3381C32.6463 45.7871 32.7362 46.4757 32.8788 47.0947C32.9569 47.4339 33.1282 47.7447 33.3734 47.992C33.5426 48.1685 33.7454 48.3093 33.9699 48.4064C34.1944 48.5034 34.436 48.5547 34.6806 48.5572C34.9251 48.5597 35.1677 48.5133 35.3941 48.4209C35.6206 48.3285 35.8262 48.1918 35.9991 48.0189C36.1719 47.8459 36.3084 47.6403 36.4007 47.4139C36.4929 47.1876 36.539 46.9451 36.5362 46.7007C36.5334 46.4564 36.4818 46.215 36.3844 45.9908C36.287 45.7666 36.1458 45.5642 35.969 45.3952C35.7264 45.1489 35.4176 44.978 35.08 44.9029C34.467 44.7666 33.7813 44.6876 33.337 44.2438L32.899 43.806C31.1813 42.0897 32.5779 39.1679 34.9923 39.4267L40.9448 40.0648C41.3954 40.1107 41.8229 40.2869 42.1749 40.5719C42.5269 40.8568 42.7881 41.2381 42.9265 41.6691L44.3934 46.1172C45.3577 49.0413 44.592 52.2592 42.414 54.4355C40.2386 56.6092 37.0251 57.3734 34.1041 56.4118L29.6412 54.9426ZM48.0723 50.9947C48.3484 50.7211 48.6995 50.5355 49.0812 50.4612C49.4629 50.3869 49.8581 50.4272 50.2168 50.5772C50.5755 50.7271 50.8818 50.9799 51.0968 51.3036C51.3119 51.6274 51.4261 52.0075 51.4251 52.3961C51.4245 52.6537 51.3729 52.9086 51.2732 53.1462C51.1736 53.3838 51.0277 53.5993 50.8442 53.7802L41.7601 62.8557C41.3858 63.2149 40.8869 63.4155 40.3679 63.4155C39.8488 63.4155 39.3499 63.2149 38.9756 62.8557C38.6114 62.4869 38.4073 61.9896 38.4073 61.4716C38.4073 60.9535 38.6114 60.4562 38.9756 60.0874L48.0723 50.9947Z" fill="white"/>
</svg>
